<svg data-name="Layer 1" xmlns="http://www.w3.org/2000/svg" width="926" height="749"><circle cx="237.905" cy="226.935" r="83.979" fill="#ff6584"/><path d="M926 200.96v220.88a325.991 325.991 0 01-326 326H0V526.96c0-118.03 62.73-221.42 156.68-278.63a323.577 323.577 0 0150.88-25.18 320.09 320.09 0 0131.76-10.53c.21-.07.43-.13.64-.18q4.77-1.305 9.6-2.46c.18-.05.35-.09.53-.13a326.116 326.116 0 0160.47-8.53c2.41-.11 4.82-.2 7.25-.25.87-.03 1.75-.05 2.64-.05q2.76-.06 5.55-.06z" fill="#3f3d56"/><path d="M432 605.5C193.914 605.5.819 669.701.01 749h863.98c-.81-79.299-193.904-143.5-431.99-143.5z" fill="#f2f2f2"/><ellipse cx="352" cy="692" rx="80" ry="22.222" opacity=".1"/><ellipse cx="525" cy="652" rx="80" ry="22.222" opacity=".1"/><ellipse cx="352" cy="692" rx="72" ry="20" opacity=".1"/><ellipse cx="525" cy="652" rx="72" ry="20" opacity=".1"/><circle cx="138" cy="290" r="7" fill="#f2f2f2"/><circle cx="740" cy="564" r="7" fill="#f2f2f2"/><circle cx="410" cy="339" r="7" fill="#f2f2f2"/><circle cx="757" cy="297" r="4" fill="#ff6584"/><circle cx="154" cy="497" r="4" fill="#ff6584"/><path fill="#f2f2f2" d="M94 581.322h-1.822V579.5h-.356v1.822H90v.356h1.822v1.822h.356v-1.822H94v-.356zM679 433.322h-1.822V431.5h-.356v1.822H675v.356h1.822v1.822h.356v-1.822H679v-.356zM830 403.322h-1.822V401.5h-.356v1.822H826v.356h1.822v1.822h.356v-1.822H830v-.356zM505 483.322h-1.822V481.5h-.356v1.822H501v.356h1.822v1.822h.356v-1.822H505v-.356zM786 493.322h-1.822V491.5h-.356v1.822H782v.356h1.822v1.822h.356v-1.822H786v-.356zM447 536.322h-1.822V534.5h-.356v1.822H443v.356h1.822v1.822h.356v-1.822H447v-.356zM575 538.322h-1.822V536.5h-.356v1.822H571v.356h1.822v1.822h.356v-1.822H575v-.356zM96 368.322h-1.822V366.5h-.356v1.822H92v.356h1.822v1.822h.356v-1.822H96v-.356zM481 352.322h-1.822V350.5h-.356v1.822H477v.356h1.822v1.822h.356v-1.822H481v-.356zM645 296.322h-1.822V294.5h-.356v1.822H641v.356h1.822v1.822h.356v-1.822H645v-.356zM627 313.322h-1.822V311.5h-.356v1.822H623v.356h1.822v1.822h.356v-1.822H627v-.356z"/><circle cx="556" cy="267" r="4" fill="#f2f2f2"/><path d="M358.958 295.195c0 279.043-35.089 279.043-78.36 279.043-22.371 0-42.553 0-56.826-38.545-4.103-11.078-7.728-25.363-10.767-43.75-6.843-41.333-10.767-103.447-10.767-196.749 0-35.877 4.247-71.05 10.767-103.9 3.135-15.816 6.796-31.082 10.767-45.64 4.858-17.826 10.181-34.587 15.553-49.924a769.071 769.071 0 0110.767-28.927C266.398 25.553 280.598 0 280.598 0s78.36 141.083 78.36 295.195z" fill="#f2f2f2"/><path d="M250.092 66.803v486.5h-10.767V95.73a769.153 769.153 0 0110.767-28.927z" opacity=".1"/><circle cx="278.205" cy="192.609" r="43.068" fill="#3f3d56"/><path d="M372.716 547.92c-9.576-23.572-21.872-27.64-29.909-27.286v-3.82H217.193v3.82c-8.037-.353-20.333 3.714-29.909 27.285C171.732 586.202 196.855 652 196.855 652s-13.426-91.767 31.158-92.371A52.762 52.762 0 00242 572.319V597h72v-22.434a52.707 52.707 0 0017.987-14.937c44.584.604 31.158 92.371 31.158 92.371s25.123-65.798 9.57-104.08z" fill="#6c63ff"/><circle cx="278.205" cy="192.609" r="33.497" fill="#6c63ff"/><path d="M846.01 200.96h-2A82.085 82.085 0 00926 282.5v-2a80.079 80.079 0 01-79.99-79.54z" fill="#6c63ff"/><path d="M809.01 200.96h-2A119.115 119.115 0 00926 319.5v-2a117.122 117.122 0 01-116.99-116.54z" fill="#6c63ff"/><path d="M771 200.96h-2c.25 86.36 70.58 156.54 157 156.54v-2c-85.32 0-154.75-69.28-155-154.54z" fill="#6c63ff"/></svg>